<svg id="eulgVBzm3R01" xmlns="http://www.w3.org/2000/svg" xmlns:xlink="http://www.w3.org/1999/xlink" viewBox="0 0 130 36" shape-rendering="geometricPrecision" text-rendering="geometricPrecision"><g transform="matrix(.216813 0 0 0.221478 3.338285 2.262915)"><g transform="matrix(1.18996 0 0 1.18996 0 0)"><g transform="matrix(5.42836 0 0 5.42836-5.42836-5.42836)"><circle r="11" transform="translate(12 12)" fill="none" stroke="#fb3b2d" stroke-width="2" stroke-linecap="round" stroke-linejoin="round" stroke-miterlimit="10"/><circle r="2" transform="translate(17.706 13.854)" fill="none" stroke="#fb3b2d" stroke-width="2" stroke-linecap="round" stroke-linejoin="round" stroke-miterlimit="10"/><circle r="2" transform="translate(12 18)" fill="none" stroke="#fb3b2d" stroke-width="2" stroke-linecap="round" stroke-linejoin="round" stroke-miterlimit="10"/><circle r="2" transform="translate(6.294 13.854)" fill="none" stroke="#fb3b2d" stroke-width="2" stroke-linecap="round" stroke-linejoin="round" stroke-miterlimit="10"/><circle r="2" transform="translate(8.473 7.146)" fill="none" stroke="#fb3b2d" stroke-width="2" stroke-linecap="round" stroke-linejoin="round" stroke-miterlimit="10"/><circle r="2" transform="translate(15.527 7.146)" fill="none" stroke="#fb3b2d" stroke-width="2" stroke-linecap="round" stroke-linejoin="round" stroke-miterlimit="10"/><circle r="1" transform="translate(12 12)" fill="#fb3b2d"/><path d="M23,23h-11" fill="none" stroke="#fb3b2d" stroke-width="2" stroke-linecap="round" stroke-linejoin="round" stroke-miterlimit="10"/></g><g transform="translate(324.4 81.656)"><path d="M-103.53,-50.79h-14.37v15.96c0,3.78-.91,6.56-2.72,8.35s-4.25,2.68-7.29,2.68c-3,0-5.29-.86-6.86-2.57-1.57-1.72-2.36-4.3-2.36-7.73v-16.69h-14.36v17.63c0,6.82,1.71,12.06,5.15,15.71c3.43,3.65,8.34,5.48,14.73,5.48c5.9,0,10.47-1.96,13.71-5.88v2.32c0,4.02-.91,6.97-2.72,8.86-1.81,1.88-4.66,2.82-8.53,2.82-2.8,0-5.53-.43-8.19-1.3-2.67-.87-5.16-2.15-7.48-3.85l-5.37,10.38c2.62,2.08,5.75,3.69,9.4,4.82c3.65,1.14,7.73,1.71,12.22,1.71c5.13,0,9.57-.93,13.32-2.79c3.75-1.87,6.64-4.62,8.67-8.28c2.03-3.65,3.05-8.04,3.05-13.16Zm57.89,11.47h-13.78v3.41c-2.66-2.71-6.31-4.07-10.96-4.07-3.58,0-6.83.82-9.76,2.47-2.92,1.64-5.24,4-6.96,7.07-1.72,3.08-2.58,6.64-2.58,10.71c0,4.06.86,7.64,2.58,10.73c1.72,3.1,4.04,5.48,6.96,7.15c2.93,1.67,6.18,2.5,9.76,2.5c5.18,0,9.05-1.52,11.61-4.57v3.92h13.13Zm-15.89,26.51c-1.54,1.67-3.53,2.51-5.95,2.51-2.41,0-4.4-.84-5.94-2.51-1.55-1.66-2.33-3.97-2.33-6.92c0-2.91.78-5.18,2.33-6.82c1.54-1.65,3.53-2.47,5.94-2.47c2.42,0,4.41.82,5.95,2.47c1.55,1.64,2.33,3.91,2.33,6.82c0,2.95-.78,5.26-2.33,6.92Zm50.61-25.83c-2.25.9-4.07,2.24-5.48,4.03v-4.71h-13.13v39.32h13.79v-18.07c0-3.29.83-5.73,2.5-7.32c1.67-1.6,3.98-2.4,6.93-2.4.82,0,1.86.07,3.12.22v-12.41c-2.9,0-5.48.45-7.73,1.34ZM10.3,-50.79v50.79h38.6v-11.39h-24.23v-39.4ZM69.07,-2.1c3.39,2.08,7.26,3.12,11.61,3.12c4.3,0,8.15-1.04,11.54-3.12c3.38-2.08,6.03-5.12,7.94-9.11s2.87-8.72,2.87-14.18c0-5.47-.96-10.2-2.87-14.19s-4.56-7.02-7.94-9.1c-3.39-2.08-7.24-3.12-11.54-3.12-4.35,0-8.22,1.04-11.61,3.12-3.38,2.08-6.03,5.11-7.94,9.1s-2.87,8.72-2.87,14.19c0,5.46.96,10.19,2.87,14.18s4.56,7.03,7.94,9.11Zm17.38-12.16c-1.43,2.35-3.35,3.52-5.77,3.52-2.47,0-4.41-1.17-5.84-3.52-1.43-2.34-2.14-6.06-2.14-11.13c0-5.08.71-8.8,2.14-11.14c1.43-2.35,3.37-3.52,5.84-3.52c2.42,0,4.34,1.17,5.77,3.52c1.43,2.34,2.14,6.06,2.14,11.14c0,5.07-.71,8.79-2.14,11.13Zm63.77-11.03c-2.25-2.58-5.47-4.31-9.68-5.18l10.52-11.32v-9h-36.71v11.1h20.02l-9.07,9.8v9.07h6.02c5.18,0,7.77,1.64,7.77,4.93c0,1.69-.73,3-2.18,3.92s-3.41,1.38-5.88,1.38c-2.42,0-4.87-.37-7.36-1.09-2.49-.73-4.73-1.77-6.71-3.12l-5.23,10.81c2.57,1.6,5.6,2.83,9.11,3.7s7.05,1.31,10.63,1.31c4.88,0,8.98-.79,12.3-2.36c3.31-1.57,5.78-3.64,7.4-6.21c1.62-2.56,2.43-5.34,2.43-8.34c0-3.68-1.13-6.81-3.38-9.4Z" fill="#f5eaea"/></g></g></g></svg>
